<svg width="79" height="29" viewBox="0 0 79 29" fill="none" xmlns="http://www.w3.org/2000/svg">
<path d="M1.32102 23V5.54545H8.53125C9.83807 5.54545 10.9659 5.78125 11.9148 6.25284C12.8693 6.71875 13.6051 7.3892 14.1222 8.2642C14.6392 9.13352 14.8977 10.1648 14.8977 11.358C14.8977 12.5682 14.6335 13.5966 14.1051 14.4432C13.5767 15.2841 12.8267 15.9261 11.8551 16.3693C10.8835 16.8068 9.73295 17.0256 8.40341 17.0256H3.84375V13.7017H7.61932C8.25568 13.7017 8.78693 13.6193 9.21307 13.4545C9.64489 13.2841 9.97159 13.0284 10.1932 12.6875C10.4148 12.3409 10.5256 11.8977 10.5256 11.358C10.5256 10.8182 10.4148 10.3722 10.1932 10.0199C9.97159 9.66193 9.64489 9.39489 9.21307 9.21875C8.78125 9.03693 8.25 8.94602 7.61932 8.94602H5.53977V23H1.32102ZM11.1477 15.0227L15.4943 23H10.892L6.63068 15.0227H11.1477ZM23.0732 23.2472C21.7038 23.2472 20.522 22.9773 19.5277 22.4375C18.5391 21.892 17.7777 21.1165 17.2436 20.1108C16.7152 19.0994 16.451 17.8977 16.451 16.5057C16.451 15.1534 16.718 13.9716 17.2521 12.9602C17.7862 11.9432 18.5391 11.1534 19.5107 10.5909C20.4822 10.0227 21.6271 9.73864 22.9453 9.73864C23.8771 9.73864 24.7294 9.88352 25.5021 10.1733C26.2749 10.4631 26.9425 10.892 27.505 11.4602C28.0675 12.0284 28.505 12.7301 28.8175 13.5653C29.13 14.3949 29.2862 15.3466 29.2862 16.4205V17.4602H17.9084V15.0398H25.4084C25.4027 14.5966 25.2976 14.2017 25.093 13.8551C24.8885 13.5085 24.6072 13.2386 24.2493 13.0455C23.897 12.8466 23.4908 12.7472 23.0305 12.7472C22.5646 12.7472 22.147 12.8523 21.7777 13.0625C21.4084 13.267 21.1158 13.5483 20.8999 13.9062C20.6839 14.2585 20.5703 14.6591 20.5589 15.108V17.571C20.5589 18.1051 20.6641 18.5739 20.8743 18.9773C21.0845 19.375 21.3828 19.6847 21.7692 19.9062C22.1555 20.1278 22.6158 20.2386 23.1499 20.2386C23.5192 20.2386 23.8544 20.1875 24.1555 20.0852C24.4567 19.983 24.7152 19.8324 24.9311 19.6335C25.147 19.4347 25.3089 19.1903 25.4169 18.9006L29.2436 19.0114C29.0845 19.8693 28.7351 20.6165 28.1953 21.2528C27.6612 21.8835 26.9595 22.375 26.0902 22.7273C25.2209 23.0739 24.2152 23.2472 23.0732 23.2472ZM43.7621 9.90909L39.2706 23H34.4979L30.0149 9.90909H34.4041L36.8161 18.9261H36.9524L39.3729 9.90909H43.7621ZM53.8061 17.3494V9.90909H57.9652V23H53.9936V20.5625H53.8572C53.5675 21.3636 53.0732 22 52.3743 22.4716C51.6811 22.9375 50.843 23.1705 49.8601 23.1705C48.968 23.1705 48.1839 22.9659 47.5078 22.5568C46.8317 22.1477 46.3061 21.5767 45.9311 20.8438C45.5561 20.1051 45.3658 19.2415 45.3601 18.2528V9.90909H49.5277V17.4347C49.5334 18.1449 49.7209 18.7045 50.0902 19.1136C50.4595 19.5227 50.9624 19.7273 51.5987 19.7273C52.0135 19.7273 52.3857 19.6364 52.7152 19.4545C53.0504 19.267 53.3146 18.9972 53.5078 18.6449C53.7067 18.2869 53.8061 17.8551 53.8061 17.3494Z" fill="black"/>
<path d="M68.2147 5.87812C68.3045 5.60172 68.6955 5.60172 68.7853 5.87812L70.79 12.048C70.8302 12.1716 70.9454 12.2553 71.0754 12.2553H77.5628C77.8534 12.2553 77.9742 12.6272 77.7391 12.798L72.4907 16.6112C72.3855 16.6876 72.3415 16.823 72.3817 16.9467L74.3864 23.1166C74.4762 23.393 74.1599 23.6228 73.9248 23.452L68.6763 19.6388C68.5712 19.5624 68.4288 19.5624 68.3237 19.6388L63.0752 23.452C62.8401 23.6228 62.5238 23.393 62.6136 23.1166L64.6183 16.9467C64.6585 16.823 64.6145 16.6876 64.5093 16.6112L59.2609 12.798C59.0258 12.6272 59.1466 12.2553 59.4372 12.2553H65.9246C66.0546 12.2553 66.1698 12.1716 66.21 12.048L68.2147 5.87812Z" fill="#FFD23F"/>
</svg>
